<?xml version="1.0" encoding="utf-8"?>
<!-- Generator: Adobe Illustrator 27.2.0, SVG Export Plug-In . SVG Version: 6.00 Build 0)  -->
<svg version="1.1" id="Capa_1" xmlns="http://www.w3.org/2000/svg" xmlns:xlink="http://www.w3.org/1999/xlink" x="0px" y="0px"
	 viewBox="0 0 640 480" style="enable-background:new 0 0 640 480;" xml:space="preserve">
<style type="text/css">
	.st0{fill:#F2F2F2;}
	.st1{fill:url(#SVGID_1_);}
	.st2{fill:url(#SVGID_00000116201933942930352520000005134187039805339581_);}
	.st3{fill:url(#SVGID_00000181795199703990712350000000484978163946559671_);}
	.st4{fill:url(#SVGID_00000180366716956956444760000017821061408215434145_);}
	.st5{fill:url(#SVGID_00000090984478166483740150000012771544642949683331_);}
	.st6{fill:url(#SVGID_00000152957566821168488850000016035214208444062113_);}
	.st7{fill:url(#SVGID_00000093163143193468629470000003231929370395023034_);}
	.st8{fill:url(#SVGID_00000029759993284236289980000005800354048349669051_);}
	.st9{fill:url(#SVGID_00000078763989851572858690000004883925711572014508_);}
	.st10{fill:url(#SVGID_00000057141938077187514560000007072576102357876367_);}
	.st11{fill:#1A1A1A;}
	.st12{fill:url(#SVGID_00000035518409006837558490000006267339483367147690_);}
	.st13{fill:url(#SVGID_00000036237997900740427100000014876163523430196101_);}
	.st14{fill:url(#SVGID_00000163034046480312099270000008233363184632135297_);}
	.st15{fill:url(#SVGID_00000065066932439058513920000011195355160824112780_);}
	.st16{fill:url(#SVGID_00000170257798866951791680000002294560929368710830_);}
	.st17{fill:url(#SVGID_00000016783199775383450740000006644870359034206372_);}
</style>
<g>
	<linearGradient id="SVGID_1_" gradientUnits="userSpaceOnUse" x1="320" y1="349.6214" x2="320" y2="185.798">
		<stop  offset="0" style="stop-color:#2B00FF"/>
		<stop  offset="1" style="stop-color:#00FFFF"/>
	</linearGradient>
	<path class="st1" d="M375.42,240l-13.85,13.85l11.78,11.78c1.15,1.15,1.15,3.01,0,4.16l-51.26,51.26c-1.15,1.15-3.01,1.15-4.16,0
		l-51.26-51.26c-1.15-1.15-1.15-3.01,0-4.16l51.26-51.26c1.15-1.15,3.01-1.15,4.16,0l9.7,9.7c1.15,1.15,3.01,1.15,4.16,0l9.7-9.7
		c1.15-1.15,1.15-3.01,0-4.16l-23.55-23.55c-1.15-1.15-3.01-1.15-4.16,0l-78.97,78.97c-1.15,1.15-1.15,3.01,0,4.16l78.97,78.97
		c1.15,1.15,3.01,1.15,4.16,0l78.97-78.97c1.15-1.15,1.15-3.01,0-4.16L375.42,240z"/>
	
		<linearGradient id="SVGID_00000164473304724714132180000016068625400982896831_" gradientUnits="userSpaceOnUse" x1="320" y1="294.202" x2="320" y2="130.3786">
		<stop  offset="0" style="stop-color:#B900FF"/>
		<stop  offset="1" style="stop-color:#FF8900"/>
	</linearGradient>
	<path style="fill:url(#SVGID_00000164473304724714132180000016068625400982896831_);" d="M317.92,131.24l-78.97,78.97
		c-1.15,1.15-1.15,3.01,0,4.16L264.58,240l13.85-13.85l-11.78-11.78c-1.15-1.15-1.15-3.01,0-4.16l51.26-51.26
		c1.15-1.15,3.01-1.15,4.16,0l51.26,51.26c1.15,1.15,1.15,3.01,0,4.16l-51.26,51.26c-1.15,1.15-3.01,1.15-4.16,0l-9.7-9.7
		c-1.15-1.15-3.01-1.15-4.16,0l-9.7,9.7c-1.15,1.15-1.15,3.01,0,4.16l23.55,23.55c1.15,1.15,3.01,1.15,4.16,0l78.97-78.97
		c1.15-1.15,1.15-3.01,0-4.16l-78.97-78.97C320.93,130.09,319.07,130.09,317.92,131.24z"/>
</g>
</svg>
