<svg version="1.1" id="Layer_1" xmlns="http://www.w3.org/2000/svg" xmlns:xlink="http://www.w3.org/1999/xlink" x="0px" y="0px"
	 viewBox="0 0 4248 3817" enable-background="new 0 0 4248 3817" xml:space="preserve" width="31.88" height="32">
<path fill="rgba(0, 0, 0, 0.0)" opacity="1.000000" stroke="none" 
	d="
M4250.000000,572.000000 
	C4250.000000,1654.613281 4250.000000,2737.226562 4250.000000,3819.919922 
	C2834.123291,3819.919922 1418.246338,3819.919922 2.184751,3819.919922 
	C2.184751,2547.519287 2.184751,1275.038452 2.184751,2.278851 
	C1418.000000,2.278851 2834.000000,2.278851 4250.000000,2.278851 
	C4250.000000,190.225052 4250.000000,378.217255 4249.062500,567.104492 
	C4012.476074,567.999512 3776.827393,567.999268 3541.178467,568.002075 
	C3537.845703,568.002136 3534.500244,567.882751 3531.188232,568.154663 
	C3530.174561,568.237854 3529.253174,569.443665 3527.771729,570.582275 
	C3501.451904,609.364502 3475.642090,647.694397 3449.849854,686.036194 
	C3399.190674,761.343872 3348.544189,836.660095 3297.886963,911.969360 
	C3248.153564,985.905334 3198.409912,1059.834473 3148.677002,1133.770874 
	C3098.020020,1209.080322 3047.361572,1284.388550 2996.720703,1359.708984 
	C2945.524170,1435.855835 2894.328613,1512.003296 2843.170410,1588.175781 
	C2808.139160,1640.335327 2774.007568,1693.126831 2737.817627,1744.468018 
	C2720.285156,1769.340210 2709.281494,1796.929932 2696.940186,1824.100342 
	C2689.815430,1839.786011 2683.616699,1855.893433 2677.054199,1871.832886 
	C2670.876953,1886.837402 2664.801758,1901.884033 2658.621582,1916.887329 
	C2653.515869,1929.282104 2648.322266,1941.640625 2643.411621,1953.430176 
	C2638.251953,1953.430176 2634.117676,1953.430176 2629.666016,1953.430176 
	C2629.666016,1949.136475 2629.666260,1945.499390 2629.666260,1941.862427 
	C2629.666260,1725.270508 2629.667236,1508.678467 2629.657959,1292.086548 
	C2629.657715,1288.090820 2629.534424,1284.095093 2629.713867,1279.589111 
	C2629.912842,1278.704224 2629.866455,1278.329712 2630.054688,1277.046631 
	C2630.304443,1043.077881 2630.321289,810.017578 2630.316650,576.957336 
	C2630.316650,574.641541 2630.039062,572.325684 2629.614258,569.174438 
	C2626.349609,568.226074 2623.361328,568.014343 2620.373291,568.014099 
	C2424.870605,567.998474 2229.367920,567.999573 2033.865234,568.005005 
	C2031.203613,568.005066 2028.531128,567.961487 2025.888184,568.204468 
	C2025.245239,568.263611 2024.699341,569.379639 2023.906738,570.927368 
	C2023.691772,572.844543 2023.667725,573.844177 2023.667725,574.843811 
	C2023.665649,1318.229248 2023.664673,2061.614746 2023.682129,2805.000244 
	C2023.682251,2807.985596 2023.948120,2810.970703 2024.439453,2814.750488 
	C2028.437500,2815.696777 2032.085693,2815.980713 2035.734009,2815.980957 
	C2243.882568,2816.002197 2452.031006,2816.000244 2660.179443,2815.998291 
	C2663.176514,2815.998291 2666.186768,2816.122314 2669.164307,2815.873291 
	C2670.320068,2815.776855 2671.402588,2814.805420 2673.073242,2813.872559 
	C2713.973145,2756.178223 2754.343506,2698.861328 2794.656982,2641.504639 
	C2856.004639,2554.221436 2917.281982,2466.888916 2978.646973,2379.617676 
	C3037.143066,2296.426514 3095.729004,2213.298340 3154.246094,2130.121826 
	C3214.665527,2044.241089 3275.051758,1958.336914 3335.449219,1872.440430 
	C3395.459229,1787.094727 3455.465820,1701.746826 3515.471191,1616.398193 
	C3575.492188,1531.027344 3635.510742,1445.654785 3695.530518,1360.283081 
	C3755.550293,1274.911499 3815.584717,1189.550049 3875.583740,1104.163818 
	C3916.654053,1045.715820 3957.635742,987.205627 3998.728027,928.773132 
	C4047.276611,859.738037 4095.897949,790.753845 4144.495605,721.753296 
	C4179.656738,671.830750 4214.831543,621.917419 4250.000000,572.000000 
M774.092590,2056.052246 
	C778.423401,2056.034912 782.754150,2056.002197 787.084961,2056.002197 
	C1060.934692,2055.999756 1334.784302,2056.000244 1608.634033,2055.998779 
	C1611.632324,2055.998779 1614.659790,2056.219238 1617.616211,2055.862061 
	C1619.029419,2055.690918 1620.307739,2054.405518 1621.663452,2051.806641 
	C1621.664062,1883.304565 1621.666016,1714.802612 1621.655029,1546.300537 
	C1621.654785,1542.974976 1621.504150,1539.649292 1620.818115,1534.791504 
	C1616.864136,1534.527710 1612.910034,1534.033447 1608.956055,1534.032837 
	C1334.186646,1533.996704 1059.417236,1534.001343 784.647888,1533.989014 
	C779.988159,1533.988892 775.328430,1533.823975 770.364502,1531.926392 
	C770.354614,1386.719727 770.343811,1241.513184 770.344849,1096.306519 
	C770.344849,1094.312622 770.494690,1092.318848 772.364807,1090.198730 
	C776.360657,1090.132446 780.356445,1090.008301 784.352295,1090.008179 
	C1107.901001,1089.999268 1431.449585,1090.000244 1754.998291,1089.998047 
	C1758.330200,1089.998047 1761.674072,1090.120972 1764.986938,1089.861938 
	C1766.004639,1089.782471 1766.937988,1088.620972 1768.296631,1086.127808 
	C1768.309204,916.420349 1768.323486,746.712891 1768.317749,577.005432 
	C1768.317627,574.688538 1768.064209,572.371643 1767.103760,568.557312 
	C1763.125977,568.371521 1759.148071,568.023193 1755.170288,568.023071 
	C1223.241211,567.998779 691.312073,567.999817 159.382965,568.004395 
	C156.051331,568.004456 152.704514,567.906311 149.397278,568.209167 
	C148.398590,568.300659 147.509766,569.592102 146.355957,572.145691 
	C146.349503,572.812195 146.337402,573.478760 146.337402,574.145264 
	C146.336105,1317.689331 146.335114,2061.233398 146.348999,2804.777344 
	C146.349060,2807.768066 146.561340,2810.758789 147.162155,2815.336914 
	C151.130463,2815.557861 155.098724,2815.971680 159.067047,2815.972412 
	C358.709564,2816.003906 558.352051,2816.000244 757.994568,2815.998291 
	C760.994019,2815.998291 764.008545,2816.134277 766.984619,2815.862061 
	C768.009399,2815.768311 768.937805,2814.621338 770.296570,2812.128418 
	C770.309265,2564.141357 770.320740,2316.154541 770.346252,2068.167480 
	C770.346680,2064.173584 770.519409,2060.179443 771.435120,2056.364990 
	C771.435120,2056.364990 772.252686,2056.160889 774.092590,2056.052246 
z"/>
<path fill="#000000" opacity="1.000000" stroke="none" 
	d="
M2024.089844,2813.956055 
	C2023.948120,2810.970703 2023.682251,2807.985596 2023.682129,2805.000244 
	C2023.664673,2061.614746 2023.665649,1318.229248 2023.667725,574.843811 
	C2023.667725,573.844177 2023.691772,572.844543 2024.837036,570.924255 
	C2227.276855,570.005676 2428.583984,570.007751 2629.891113,570.009827 
	C2630.039062,572.325684 2630.316650,574.641541 2630.316650,576.957336 
	C2630.321289,810.017578 2630.304443,1043.077881 2629.689941,1277.206543 
	C2628.937744,1278.490601 2628.608398,1278.787476 2628.663574,1278.907227 
	C2628.861572,1279.336914 2629.189697,1279.706909 2629.468750,1280.099365 
	C2629.534424,1284.095093 2629.657715,1288.090820 2629.657959,1292.086548 
	C2629.667236,1508.678467 2629.666260,1725.270508 2629.666260,1941.862427 
	C2629.666260,1945.499390 2629.666016,1949.136475 2629.666016,1953.430176 
	C2634.117676,1953.430176 2638.251953,1953.430176 2643.411621,1953.430176 
	C2648.322266,1941.640625 2653.515869,1929.282104 2658.621582,1916.887329 
	C2664.801758,1901.884033 2670.876953,1886.837402 2677.054199,1871.832886 
	C2683.616699,1855.893433 2689.815430,1839.786011 2696.940186,1824.100342 
	C2709.281494,1796.929932 2720.285156,1769.340210 2737.817627,1744.468018 
	C2774.007568,1693.126831 2808.139160,1640.335327 2843.170410,1588.175781 
	C2894.328613,1512.003296 2945.524170,1435.855835 2996.720703,1359.708984 
	C3047.361572,1284.388550 3098.020020,1209.080322 3148.677002,1133.770874 
	C3198.409912,1059.834473 3248.153564,985.905334 3297.886963,911.969360 
	C3348.544189,836.660095 3399.190674,761.343872 3449.849854,686.036194 
	C3475.642090,647.694397 3501.451904,609.364502 3528.692871,570.555664 
	C3534.463867,570.054626 3538.795898,570.003418 3543.128174,570.003357 
	C3778.752197,569.999512 4014.375977,570.000000 4250.000000,570.000000 
	C4250.000000,570.000000 4250.000000,571.000000 4250.000000,571.500000 
	C4214.831543,621.917419 4179.656738,671.830750 4144.495605,721.753296 
	C4095.897949,790.753845 4047.276611,859.738037 3998.728027,928.773132 
	C3957.635742,987.205627 3916.654053,1045.715820 3875.583740,1104.163818 
	C3815.584717,1189.550049 3755.550293,1274.911499 3695.530518,1360.283081 
	C3635.510742,1445.654785 3575.492188,1531.027344 3515.471191,1616.398193 
	C3455.465820,1701.746826 3395.459229,1787.094727 3335.449219,1872.440430 
	C3275.051758,1958.336914 3214.665527,2044.241089 3154.246094,2130.121826 
	C3095.729004,2213.298340 3037.143066,2296.426514 2978.646973,2379.617676 
	C2917.281982,2466.888916 2856.004639,2554.221436 2794.656982,2641.504639 
	C2754.343506,2698.861328 2713.973145,2756.178223 2672.095215,2813.788574 
	C2665.899658,2814.042725 2661.237061,2814.003174 2656.574463,2814.002686 
	C2445.746338,2813.985107 2234.917969,2813.970703 2024.089844,2813.956055 
z"/>
<path fill="#3F0000" opacity="1.000000" stroke="none" 
	d="
M4250.000000,569.500000 
	C4014.375977,570.000000 3778.752197,569.999512 3543.128174,570.003357 
	C3538.795898,570.003418 3534.463867,570.054626 3529.210449,570.108643 
	C3529.253174,569.443665 3530.174561,568.237854 3531.188232,568.154663 
	C3534.500244,567.882751 3537.845703,568.002136 3541.178467,568.002075 
	C3776.827393,567.999268 4012.476074,567.999512 4249.062500,567.999756 
	C4250.000000,568.000000 4250.000000,569.000000 4250.000000,569.500000 
z"/>
<path fill="#000000" opacity="1.000000" stroke="none" 
	d="
M1621.423706,1536.323730 
	C1621.504150,1539.649292 1621.654785,1542.974976 1621.655029,1546.300537 
	C1621.666016,1714.802612 1621.664062,1883.304565 1620.754150,2052.828613 
	C1615.846680,2053.900635 1611.848511,2053.993652 1607.850220,2053.993652 
	C1333.185791,2054.000488 1058.521240,2053.998291 783.856812,2054.016602 
	C779.869019,2054.016846 775.881287,2054.268066 771.371704,2054.375977 
	C770.770569,2054.961914 770.691162,2055.573730 770.611816,2056.185547 
	C770.519409,2060.179443 770.346680,2064.173584 770.346252,2068.167480 
	C770.320740,2316.154541 770.309265,2564.141357 769.172424,2813.058838 
	C564.583862,2813.992676 361.119476,2813.997803 157.655090,2813.989990 
	C153.994888,2813.989746 150.334686,2813.833252 146.674500,2813.749512 
	C146.561340,2810.758789 146.349060,2807.768066 146.348999,2804.777344 
	C146.335114,2061.233398 146.336105,1317.689331 146.337402,574.145264 
	C146.337402,573.478760 146.349503,572.812195 147.356720,571.174805 
	C152.353577,570.135925 156.349686,570.008545 160.345795,570.008484 
	C692.541321,569.999634 1224.736816,569.999878 1756.932373,570.002197 
	C1760.597900,570.002197 1764.263428,570.036438 1767.928955,570.054688 
	C1768.064209,572.371643 1768.317627,574.688538 1768.317749,577.005432 
	C1768.323486,746.712891 1768.309204,916.420349 1767.172363,1087.058350 
	C1438.833374,1087.992676 1111.618530,1087.996216 784.403687,1088.000977 
	C781.071594,1088.001099 777.718201,1087.801147 774.417847,1088.128662 
	C773.077271,1088.261841 771.852234,1089.557983 770.574585,1090.324951 
	C770.494690,1092.318848 770.344849,1094.312622 770.344849,1096.306519 
	C770.343811,1241.513184 770.354614,1386.719727 770.758179,1533.625244 
	C775.116760,1535.549438 779.081726,1535.971436 783.046631,1535.971924 
	C1057.846558,1536.002808 1332.646484,1535.998413 1607.446411,1536.013428 
	C1612.105469,1536.013672 1616.764648,1536.215820 1621.423706,1536.323730 
z"/>
<path fill="#BF7F7F" opacity="1.000000" stroke="none" 
	d="
M1767.516357,569.306030 
	C1764.263428,570.036438 1760.597900,570.002197 1756.932373,570.002197 
	C1224.736816,569.999878 692.541321,569.999634 160.345795,570.008484 
	C156.349686,570.008545 152.353577,570.135925 147.464050,570.268921 
	C147.509766,569.592102 148.398590,568.300659 149.397278,568.209167 
	C152.704514,567.906311 156.051331,568.004456 159.382965,568.004395 
	C691.312073,567.999817 1223.241211,567.998779 1755.170288,568.023071 
	C1759.148071,568.023193 1763.125977,568.371521 1767.516357,569.306030 
z"/>
<path fill="#3F7F7F" opacity="1.000000" stroke="none" 
	d="
M771.469727,1090.261841 
	C771.852234,1089.557983 773.077271,1088.261841 774.417847,1088.128662 
	C777.718201,1087.801147 781.071594,1088.001099 784.403687,1088.000977 
	C1111.618530,1087.996216 1438.833374,1087.992676 1766.979126,1087.971924 
	C1766.937988,1088.620972 1766.004639,1089.782471 1764.986938,1089.861938 
	C1761.674072,1090.120972 1758.330200,1089.998047 1754.998291,1089.998047 
	C1431.449585,1090.000244 1107.901001,1089.999268 784.352295,1090.008179 
	C780.356445,1090.008301 776.360657,1090.132446 771.469727,1090.261841 
z"/>
<path fill="#BF7F7F" opacity="1.000000" stroke="none" 
	d="
M1621.120850,1535.557617 
	C1616.764648,1536.215820 1612.105469,1536.013672 1607.446411,1536.013428 
	C1332.646484,1535.998413 1057.846558,1536.002808 783.046631,1535.971924 
	C779.081726,1535.971436 775.116760,1535.549438 770.910278,1534.530029 
	C775.328430,1533.823975 779.988159,1533.988892 784.647888,1533.989014 
	C1059.417236,1534.001343 1334.186646,1533.996704 1608.956055,1534.032837 
	C1612.910034,1534.033447 1616.864136,1534.527710 1621.120850,1535.557617 
z"/>
<path fill="#BFFFFF" opacity="1.000000" stroke="none" 
	d="
M771.893494,2054.401855 
	C775.881287,2054.268066 779.869019,2054.016846 783.856812,2054.016602 
	C1058.521240,2053.998291 1333.185791,2054.000488 1607.850220,2053.993652 
	C1611.848511,2053.993652 1615.846680,2053.900635 1620.746094,2053.737793 
	C1620.307739,2054.405518 1619.029419,2055.690918 1617.616211,2055.862061 
	C1614.659790,2056.219238 1611.632324,2055.998779 1608.634033,2055.998779 
	C1334.784302,2056.000244 1060.934692,2055.999756 787.084961,2056.002197 
	C782.754150,2056.002197 778.423401,2056.034912 773.073730,2055.667969 
	C772.054871,2055.283691 771.893494,2054.401855 771.893494,2054.401855 
z"/>
<path fill="#3F7F7F" opacity="1.000000" stroke="none" 
	d="
M2024.439453,2814.750488 
	C2234.917969,2813.970703 2445.746338,2813.985107 2656.574463,2814.002686 
	C2661.237061,2814.003174 2665.899658,2814.042725 2671.540283,2814.147949 
	C2671.402588,2814.805420 2670.320068,2815.776855 2669.164307,2815.873291 
	C2666.186768,2816.122314 2663.176514,2815.998291 2660.179443,2815.998291 
	C2452.031006,2816.000244 2243.882568,2816.002197 2035.734009,2815.980957 
	C2032.085693,2815.980713 2028.437500,2815.696777 2024.439453,2814.750488 
z"/>
<path fill="#3F7F7F" opacity="1.000000" stroke="none" 
	d="
M146.918335,2814.543457 
	C150.334686,2813.833252 153.994888,2813.989746 157.655090,2813.989990 
	C361.119476,2813.997803 564.583862,2813.992676 768.979248,2813.972412 
	C768.937805,2814.621338 768.009399,2815.768311 766.984619,2815.862061 
	C764.008545,2816.134277 760.994019,2815.998291 757.994568,2815.998291 
	C558.352051,2816.000244 358.709564,2816.003906 159.067047,2815.972412 
	C155.098724,2815.971680 151.130463,2815.557861 146.918335,2814.543457 
z"/>
<path fill="#3F0000" opacity="1.000000" stroke="none" 
	d="
M2629.614502,569.174438 
	C2428.583984,570.007751 2227.276855,570.005676 2025.039185,570.006714 
	C2024.699341,569.379639 2025.245239,568.263611 2025.888184,568.204468 
	C2028.531128,567.961487 2031.203613,568.005066 2033.865234,568.005005 
	C2229.367920,567.999573 2424.870605,567.998474 2620.373291,568.014099 
	C2623.361328,568.014343 2626.349609,568.226074 2629.614502,569.174438 
z"/>
<path fill="#404040" opacity="1.000000" stroke="none" 
	d="
M2629.713867,1279.589111 
	C2629.189697,1279.706909 2628.861572,1279.336914 2628.663574,1278.907227 
	C2628.608398,1278.787476 2628.937744,1278.490601 2629.455566,1278.114990 
	C2629.866455,1278.329712 2629.912842,1278.704224 2629.713867,1279.589111 
z"/>
<path fill="#BFBFBF" opacity="1.000000" stroke="none" 
	d="
M771.371704,2054.375977 
	C771.893494,2054.401855 772.054871,2055.283691 772.153809,2055.722168 
	C772.252686,2056.160889 771.435120,2056.364990 771.023438,2056.275391 
	C770.691162,2055.573730 770.770569,2054.961914 771.371704,2054.375977 
z"/>
</svg>