<svg version="1.1" id="Layer_1" xmlns="http://www.w3.org/2000/svg" xmlns:xlink="http://www.w3.org/1999/xlink" x="0px" y="0px"
	 width="100%" viewBox="0 0 4248 3817" enable-background="new 0 0 4248 3817" xml:space="preserve">
<path fill="#17BED2" opacity="1.000000" stroke="none" 
	d="
M2024.092285,2813.953857 
	C2023.960815,2810.631348 2023.714355,2807.309082 2023.714233,2803.986572 
	C2023.697510,2062.283691 2023.697998,1320.580566 2023.701172,578.877563 
	C2023.701172,576.545593 2023.748413,574.213623 2024.865234,570.946350 
	C2227.272217,570.019165 2428.587402,570.027283 2629.902588,570.035461 
	C2630.035889,572.690613 2630.285400,575.345764 2630.285400,578.000916 
	C2630.303467,808.850708 2630.379883,1039.700439 2630.280029,1270.550293 
	C2630.181885,1496.724854 2629.902588,1722.899414 2629.705566,1949.073975 
	C2629.704590,1950.072998 2629.740967,1951.072144 2630.375977,1953.598145 
	C2635.429688,1955.977295 2639.993896,1957.834839 2643.781738,1953.517334 
	C2667.848389,1895.821777 2691.719238,1838.043091 2716.172363,1780.512085 
	C2720.288818,1770.827637 2726.550781,1761.964600 2732.452148,1753.143921 
	C2769.113037,1698.347046 2805.942139,1643.662231 2842.737549,1588.955444 
	C2894.027344,1512.698853 2945.343994,1436.460327 2996.635742,1360.205078 
	C3046.812012,1285.608276 3096.971680,1211.000244 3147.138916,1136.397217 
	C3197.492920,1061.517212 3247.837891,986.631226 3298.204102,911.759399 
	C3348.569824,836.887939 3398.951416,762.027161 3449.336426,687.168579 
	C3475.364502,648.497925 3501.414307,609.842102 3528.803711,570.628662 
	C3534.485107,570.051941 3538.817383,570.003357 3543.149414,570.003296 
	C3778.766357,569.999634 4014.383057,570.000000 4250.000000,570.000000 
	C4250.000000,570.000000 4250.000000,571.000000 4250.000000,571.500000 
	C4232.273438,596.784851 4214.413574,621.475769 4196.860352,646.382690 
	C4181.217773,668.577942 4166.035645,691.096985 4150.426270,713.315674 
	C4136.122070,733.676575 4121.387207,753.735107 4107.081055,774.094299 
	C4091.470215,796.310730 4076.230469,818.787659 4060.655029,841.028992 
	C4035.324463,877.200256 4009.847168,913.268616 3984.441406,949.387390 
	C3967.079834,974.070251 3949.736572,998.766113 3932.382568,1023.454529 
	C3867.751221,1115.403076 3803.106689,1207.342407 3738.490967,1299.302002 
	C3689.312988,1369.291626 3640.219238,1439.340454 3591.000488,1509.301514 
	C3534.312500,1589.878784 3477.482178,1670.356567 3420.800781,1750.938721 
	C3378.672363,1810.831665 3336.721191,1870.848999 3294.620117,1930.761230 
	C3250.415527,1993.666748 3206.104248,2056.497314 3161.882568,2119.390625 
	C3125.125488,2171.668213 3088.466064,2224.014160 3051.699219,2276.284668 
	C3007.656006,2338.899658 2963.519531,2401.448975 2919.471924,2464.061279 
	C2882.318604,2516.872803 2845.234375,2569.732666 2808.121338,2622.572754 
	C2764.313721,2684.944336 2720.509033,2747.317871 2676.690918,2809.682373 
	C2675.734619,2811.042969 2674.630615,2812.300049 2672.069824,2813.864746 
	C2666.215576,2814.082764 2661.886719,2814.005615 2657.557861,2814.005371 
	C2446.402588,2813.983887 2235.247559,2813.969238 2024.092285,2813.953857 
z"/>
<path fill="#51BED2" opacity="1.000000" stroke="none" 
	d="
M4250.000000,569.500000 
	C4014.383057,570.000000 3778.766357,569.999634 3543.149414,570.003296 
	C3538.817383,570.003357 3534.485107,570.051941 3529.240723,570.104614 
	C3529.694580,569.428528 3531.011963,568.271912 3532.437744,568.117798 
	C3535.402588,567.797180 3538.424805,568.000977 3541.423584,568.000977 
	C3776.990723,567.999939 4012.557861,568.000000 4249.062500,568.000000 
	C4250.000000,568.000000 4250.000000,569.000000 4250.000000,569.500000 
z"/>
<path fill="#515769" opacity="1.000000" stroke="none" 
	d="
M1621.501465,1536.453735 
	C1621.559692,1540.445801 1621.668579,1544.437988 1621.668823,1548.430054 
	C1621.680420,1716.181519 1621.682373,1883.933105 1620.809448,2052.745605 
	C1615.936157,2053.871338 1611.938843,2053.991943 1607.941528,2053.991943 
	C1333.621216,2054.000977 1059.300903,2053.998291 784.980591,2054.016113 
	C780.657104,2054.016357 776.333618,2054.257080 771.507812,2054.395752 
	C770.875366,2054.997559 770.745239,2055.588867 770.615112,2056.180420 
	C770.515808,2060.507812 770.329590,2064.834961 770.329346,2069.162354 
	C770.315369,2312.808594 770.317322,2556.454590 770.314209,2800.100830 
	C770.314148,2804.100098 770.273010,2808.099609 769.152466,2813.040527 
	C564.244995,2813.988281 360.436188,2813.995605 156.627380,2813.986084 
	C153.301117,2813.986084 149.974854,2813.781494 146.648590,2813.672119 
	C146.540298,2810.679688 146.337173,2807.687256 146.337128,2804.694824 
	C146.324051,2061.551514 146.325089,1318.408325 146.327011,575.265137 
	C146.327011,574.265869 146.345169,573.266602 147.320007,571.244995 
	C152.614532,570.148499 156.943893,570.009277 161.273270,570.009216 
	C692.497253,569.999451 1223.721191,569.999878 1754.945190,570.003052 
	C1759.277344,570.003052 1763.609497,570.048462 1767.941650,570.072693 
	C1768.066406,572.059937 1768.300537,574.047180 1768.300415,576.034424 
	C1768.295654,746.056030 1768.272705,916.077637 1767.152466,1087.040894 
	C1438.821045,1087.988281 1111.588257,1087.994141 784.355347,1088.001465 
	C781.023132,1088.001465 777.666992,1087.795166 774.370300,1088.142944 
	C773.012695,1088.286133 771.782959,1089.642090 770.494995,1090.446411 
	C770.437012,1091.775879 770.328125,1093.105469 770.328186,1094.434937 
	C770.337524,1240.238892 770.355042,1386.042725 770.806641,1533.517578 
	C775.193054,1535.458862 779.144897,1535.965698 783.096863,1535.966187 
	C1057.909668,1536.003418 1332.722412,1535.997803 1607.535156,1536.018921 
	C1612.190552,1536.019287 1616.846069,1536.302490 1621.501465,1536.453735 
z"/>
<path fill="#7CABB4" opacity="1.000000" stroke="none" 
	d="
M771.390381,1090.332153 
	C771.782959,1089.642090 773.012695,1088.286133 774.370300,1088.142944 
	C777.666992,1087.795166 781.023132,1088.001465 784.355347,1088.001465 
	C1111.588257,1087.994141 1438.821045,1087.988281 1766.984619,1087.961670 
	C1766.886230,1088.601318 1765.896851,1089.743896 1764.820679,1089.832397 
	C1761.509766,1090.104858 1758.165527,1089.996826 1754.834351,1089.996826 
	C1431.646606,1090.000244 1108.458862,1089.999268 785.271118,1090.009155 
	C780.942688,1090.009277 776.614197,1090.145264 771.390381,1090.332153 
z"/>

<path fill="#51DEE8" opacity="1.000000" stroke="none" 
	d="
M2024.520752,2814.692383 
	C2235.247559,2813.969238 2446.402588,2813.983887 2657.557861,2814.005371 
	C2661.886719,2814.005615 2666.215576,2814.082764 2671.515137,2814.236572 
	C2669.322510,2814.899170 2666.159180,2815.930176 2662.995605,2815.931152 
	C2452.954102,2816.007324 2242.912598,2816.002197 2032.871216,2815.976318 
	C2030.230469,2815.976074 2027.589844,2815.620605 2024.520752,2814.692383 
z"/>
<path fill="#7CABB4" opacity="1.000000" stroke="none" 
	d="
M146.952774,2814.434326 
	C149.974854,2813.781494 153.301117,2813.986084 156.627380,2813.986084 
	C360.436188,2813.995605 564.244995,2813.988281 768.984680,2813.961426 
	C768.886414,2814.600830 767.908386,2815.708740 766.818176,2815.832764 
	C764.184570,2816.133057 761.498596,2815.996826 758.833801,2815.996826 
	C558.595093,2816.000244 358.356384,2816.004150 158.117661,2815.966553 
	C154.497391,2815.965820 150.877197,2815.464355 146.952774,2814.434326 
z"/>
<path fill="#51BED2" opacity="1.000000" stroke="none" 
	d="
M2629.485352,569.288818 
	C2428.587402,570.027283 2227.272217,570.019165 2025.027344,570.023132 
	C2025.119019,569.379456 2026.096436,568.258057 2027.169922,568.157043 
	C2030.145142,567.877197 2033.160278,568.002869 2036.159668,568.002808 
	C2230.149902,567.999695 2424.139893,567.997009 2618.130127,568.022583 
	C2621.776123,568.023071 2625.422363,568.361450 2629.485352,569.288818 
z"/>
<path fill="#51BED2" opacity="1.000000" stroke="none" 
	d="
M2642.932617,1953.653320 
	C2639.993896,1957.834839 2635.429688,1955.977295 2630.510254,1954.522461 
	C2634.046631,1953.876221 2638.065186,1953.832764 2642.932617,1953.653320 
z"/>
</svg>