<svg version="1.1" id="Layer_1" xmlns="http://www.w3.org/2000/svg" xmlns:xlink="http://www.w3.org/1999/xlink" x="0px" y="0px"
	 width="100%" viewBox="0 0 980 556" enable-background="new 0 0 980 556" xml:space="preserve">
<path fill="#FFFFFF" opacity="1.000000" stroke="none" 
	d="
M981.000000,326.000000 
	C981.000000,402.958038 981.000000,479.916046 981.000000,557.000000 
	C792.644653,557.000000 604.289307,557.000000 415.253540,556.651062 
	C480.742340,372.053009 546.911560,187.803879 613.176514,3.288292 
	C610.143799,2.439552 607.571899,1.719778 605.000000,1.000003 
	C730.244629,1.000000 855.489319,1.000000 981.000000,1.000000 
	C981.000000,80.021812 981.000000,159.043930 980.614990,238.371918 
	C979.257568,235.512817 981.457458,231.833374 976.871643,229.248917 
	C879.709473,174.490143 782.660095,119.531204 685.581543,64.624008 
	C684.513672,64.020012 683.351318,63.583080 681.829834,62.882481 
	C681.654541,66.021782 681.368042,68.665443 681.380493,71.307709 
	C681.533020,103.803696 681.787598,136.299423 681.819702,168.795410 
	C681.822754,171.896881 683.540405,172.698608 685.616394,173.761383 
	C752.305969,207.903503 818.990417,242.055481 885.668579,276.219879 
	C886.792664,276.795837 887.829102,277.542664 889.185608,278.382599 
	C876.958374,284.711914 865.162109,290.828125 853.357056,296.927155 
	C797.271484,325.903503 741.184265,354.876495 685.093933,383.843475 
	C682.925842,384.963165 680.801880,385.587097 680.831970,389.020386 
	C681.122620,422.182739 681.188110,455.347015 681.352173,488.510620 
	C681.362671,490.627533 681.657166,492.743073 681.860779,495.396484 
	C686.034180,493.108185 689.683960,491.173920 693.271423,489.130188 
	C787.146484,435.649933 881.012878,382.154694 974.899292,328.694427 
	C976.821106,327.600098 978.961548,326.889587 981.000000,326.000000 
z"/>
<path fill="#FFFFFF" opacity="1.000000" stroke="none" 
	d="
M353.000000,557.000000 
	C235.754074,557.000000 118.508156,557.000000 1.000000,557.000000 
	C1.000000,480.311523 1.000000,403.622742 1.357354,326.463226 
	C100.968086,382.449493 200.221466,438.906525 300.110168,495.724915 
	C300.355133,492.202118 300.645874,489.890747 300.657104,487.577972 
	C300.816895,454.752350 300.877014,421.926056 301.163483,389.101685 
	C301.192871,385.735229 299.227570,384.977173 297.013824,383.826508 
	C247.049011,357.855682 197.094666,331.864777 147.139160,305.876068 
	C129.069870,296.475769 111.002663,287.071472 92.475563,277.430176 
	C94.412437,276.421387 95.862953,275.640076 97.335457,274.902710 
	C163.900604,241.569717 230.459473,208.224167 297.062805,174.967621 
	C299.890991,173.555435 301.212646,172.161102 301.181061,168.686417 
	C300.956757,144.026382 301.021881,119.363678 301.001404,94.701828 
	C300.992737,84.252663 300.999969,73.803482 300.999969,62.252342 
	C297.911194,63.789509 296.280243,64.508408 294.737152,65.382339 
	C198.861938,119.680733 102.995811,173.995193 7.111398,228.277313 
	C5.179591,229.370926 3.041728,230.100555 0.999998,231.000000 
	C1.000000,154.376007 1.000000,77.752029 1.000000,1.000000 
	C184.021988,1.000000 367.044006,1.000000 550.514099,1.254488 
	C550.983765,1.677725 551.005371,1.846475 550.821777,2.311607 
	C489.426331,173.329788 428.224365,344.047394 367.067657,514.781250 
	C362.146790,528.518982 357.537140,542.368286 352.678711,556.415527 
	C352.716339,556.776917 352.858185,556.888489 353.000000,557.000000 
z"/>
<path fill="#010101" opacity="1.000000" stroke="none" 
	d="
M0.999998,231.468658 
	C3.041728,230.100555 5.179591,229.370926 7.111398,228.277313 
	C102.995811,173.995193 198.861938,119.680733 294.737152,65.382339 
	C296.280243,64.508408 297.911194,63.789509 300.999969,62.252342 
	C300.999969,73.803482 300.992737,84.252663 301.001404,94.701828 
	C301.021881,119.363678 300.956757,144.026382 301.181061,168.686417 
	C301.212646,172.161102 299.890991,173.555435 297.062805,174.967621 
	C230.459473,208.224167 163.900604,241.569717 97.335457,274.902710 
	C95.862953,275.640076 94.412437,276.421387 92.475563,277.430176 
	C111.002663,287.071472 129.069870,296.475769 147.139160,305.876068 
	C197.094666,331.864777 247.049011,357.855682 297.013824,383.826508 
	C299.227570,384.977173 301.192871,385.735229 301.163483,389.101685 
	C300.877014,421.926056 300.816895,454.752350 300.657104,487.577972 
	C300.645874,489.890747 300.355133,492.202118 300.110168,495.724915 
	C200.221466,438.906525 100.968086,382.449493 1.357354,325.996246 
	C1.000000,294.645782 1.000000,263.291534 0.999998,231.468658 
z"/>
<path fill="#010101" opacity="1.000000" stroke="none" 
	d="
M981.000000,325.531342 
	C978.961548,326.889587 976.821106,327.600098 974.899292,328.694427 
	C881.012878,382.154694 787.146484,435.649933 693.271423,489.130188 
	C689.683960,491.173920 686.034180,493.108185 681.860779,495.396484 
	C681.657166,492.743073 681.362671,490.627533 681.352173,488.510620 
	C681.188110,455.347015 681.122620,422.182739 680.831970,389.020386 
	C680.801880,385.587097 682.925842,384.963165 685.093933,383.843475 
	C741.184265,354.876495 797.271484,325.903503 853.357056,296.927155 
	C865.162109,290.828125 876.958374,284.711914 889.185608,278.382599 
	C887.829102,277.542664 886.792664,276.795837 885.668579,276.219879 
	C818.990417,242.055481 752.305969,207.903503 685.616394,173.761383 
	C683.540405,172.698608 681.822754,171.896881 681.819702,168.795410 
	C681.787598,136.299423 681.533020,103.803696 681.380493,71.307709 
	C681.368042,68.665443 681.654541,66.021782 681.829834,62.882481 
	C683.351318,63.583080 684.513672,64.020012 685.581543,64.624008 
	C782.660095,119.531204 879.709473,174.490143 976.871643,229.248917 
	C981.457458,231.833374 979.257568,235.512817 980.614990,238.838898 
	C981.000000,247.354233 981.000000,255.708450 980.612671,264.719849 
	C980.207275,269.229553 980.189331,273.082123 980.088623,277.397522 
	C980.337280,282.573608 980.668640,287.286804 981.000000,292.000000 
	C981.000000,303.020905 981.000000,314.041779 981.000000,325.531342 
z"/>
<path fill="#010101" opacity="1.000000" stroke="none" 
	d="
M352.782898,556.165649 
	C357.537140,542.368286 362.146790,528.518982 367.067657,514.781250 
	C428.224365,344.047394 489.426331,173.329788 551.288696,2.304496 
	C562.439026,1.999261 572.917603,2.037860 583.395264,1.951447 
	C584.932678,1.938767 586.465210,1.331926 588.000000,1.000000 
	C593.354919,1.000000 598.709900,1.000000 604.532410,1.000003 
	C607.571899,1.719778 610.143799,2.439552 613.176514,3.288292 
	C546.911560,187.803879 480.742340,372.053009 414.786560,556.651062 
	C414.555542,557.000000 414.111115,557.000000 413.094177,556.649414 
	C392.608795,556.254517 372.695831,556.210083 352.782898,556.165649 
z"/>
<path fill="#585858" opacity="1.000000" stroke="none" 
	d="
M352.678711,556.415527 
	C372.695831,556.210083 392.608795,556.254517 412.760864,556.649414 
	C393.312439,557.000000 373.624878,557.000000 353.468658,557.000000 
	C352.858185,556.888489 352.716339,556.776917 352.678711,556.415527 
z"/>
<path fill="#555555" opacity="1.000000" stroke="none" 
	d="
M587.531372,1.000000 
	C586.465210,1.331926 584.932678,1.938767 583.395264,1.951447 
	C572.917603,2.037860 562.439026,1.999261 551.493835,2.008112 
	C551.005371,1.846475 550.983765,1.677725 550.981079,1.254488 
	C563.020874,1.000000 575.041809,1.000000 587.531372,1.000000 
z"/>
<path fill="#5B5B5B" opacity="1.000000" stroke="none" 
	d="
M981.000000,291.533875 
	C980.668640,287.286804 980.337280,282.573608 980.296387,277.406189 
	C980.586792,276.951965 981.000000,277.000000 981.000000,277.000000 
	C981.000000,281.689240 981.000000,286.378510 981.000000,291.533875 
z"/>
<path fill="#818181" opacity="1.000000" stroke="none" 
	d="
M981.000000,276.539368 
	C981.000000,277.000000 980.586792,276.951965 980.379089,276.943298 
	C980.189331,273.082123 980.207275,269.229553 980.612671,265.188507 
	C981.000000,268.692902 981.000000,272.385834 981.000000,276.539368 
z"/>
</svg>